<svg xmlns="http://www.w3.org/2000/svg" version="1.1" xmlns:xlink="http://www.w3.org/1999/xlink" xmlns:svgjs="http://svgjs.com/svgjs" width="1440" height="560" preserveAspectRatio="none" viewBox="0 0 1440 560"><g mask="url(&quot;#SvgjsMask1009&quot;)" fill="none"><rect width="1440" height="560" x="0" y="0" fill="rgba(51, 58, 64, 1)"></rect><path d="M104.14 61.7L169.1 99.2L169.1 174.2L104.14 211.7L39.19 174.2L39.19 99.2zM39.19 399.2L104.14 436.7L104.14 511.7L39.19 549.2L-25.76 511.7L-25.76 436.7zM234.05 61.7L299 99.2L299 174.2L234.05 211.7L169.1 174.2L169.1 99.2zM234.05 286.7L299 324.2L299 399.2L234.05 436.7L169.1 399.2L169.1 324.2zM169.1 399.2L234.05 436.7L234.05 511.7L169.1 549.2L104.14 511.7L104.14 436.7zM234.05 511.7L299 549.2L299 624.2L234.05 661.7L169.1 624.2L169.1 549.2zM363.96 286.7L428.91 324.2L428.91 399.2L363.96 436.7L299 399.2L299 324.2zM428.91 -50.8L493.87 -13.3L493.87 61.7L428.91 99.2L363.96 61.7L363.96 -13.3zM428.91 174.2L493.87 211.7L493.87 286.7L428.91 324.2L363.96 286.7L363.96 211.7zM493.87 286.7L558.82 324.2L558.82 399.2L493.87 436.7L428.91 399.2L428.91 324.2zM558.82 -50.8L623.77 -13.3L623.77 61.7L558.82 99.2L493.87 61.7L493.87 -13.3zM623.77 61.7L688.73 99.2L688.73 174.2L623.77 211.7L558.82 174.2L558.82 99.2zM688.73 -50.8L753.68 -13.3L753.68 61.7L688.73 99.2L623.77 61.7L623.77 -13.3zM688.73 174.2L753.68 211.7L753.68 286.7L688.73 324.2L623.77 286.7L623.77 211.7zM688.73 399.2L753.68 436.7L753.68 511.7L688.73 549.2L623.77 511.7L623.77 436.7zM883.59 511.7L948.54 549.2L948.54 624.2L883.59 661.7L818.63 624.2L818.63 549.2zM948.54 -50.8L1013.5 -13.3L1013.5 61.7L948.54 99.2L883.59 61.7L883.59 -13.3zM1078.45 -50.8L1143.4 -13.3L1143.4 61.7L1078.45 99.2L1013.5 61.7L1013.5 -13.3zM1143.4 61.7L1208.36 99.2L1208.36 174.2L1143.4 211.7L1078.45 174.2L1078.45 99.2zM1078.45 399.2L1143.4 436.7L1143.4 511.7L1078.45 549.2L1013.5 511.7L1013.5 436.7zM1143.4 511.7L1208.36 549.2L1208.36 624.2L1143.4 661.7L1078.45 624.2L1078.45 549.2zM1273.31 61.7L1338.26 99.2L1338.26 174.2L1273.31 211.7L1208.36 174.2L1208.36 99.2zM1208.36 174.2L1273.31 211.7L1273.31 286.7L1208.36 324.2L1143.4 286.7L1143.4 211.7zM1273.31 511.7L1338.26 549.2L1338.26 624.2L1273.31 661.7L1208.36 624.2L1208.36 549.2zM1338.27 174.2L1403.22 211.7L1403.22 286.7L1338.27 324.2L1273.31 286.7L1273.31 211.7zM1403.22 286.7L1468.17 324.2L1468.17 399.2L1403.22 436.7L1338.27 399.2L1338.27 324.2zM1338.27 399.2L1403.22 436.7L1403.22 511.7L1338.27 549.2L1273.31 511.7L1273.31 436.7zM1403.22 511.7L1468.17 549.2L1468.17 624.2L1403.22 661.7L1338.27 624.2L1338.27 549.2zM1468.17 -50.8L1533.13 -13.3L1533.13 61.7L1468.17 99.2L1403.22 61.7L1403.22 -13.3zM1468.17 174.2L1533.13 211.7L1533.13 286.7L1468.17 324.2L1403.22 286.7L1403.22 211.7zM1533.13 286.7L1598.08 324.2L1598.08 399.2L1533.13 436.7L1468.17 399.2L1468.17 324.2z" stroke="rgba(89, 103, 114, 1)" stroke-width="2"></path><path d="M96.64 61.7 a7.5 7.5 0 1 0 15 0 a7.5 7.5 0 1 0 -15 0zM161.6 99.2 a7.5 7.5 0 1 0 15 0 a7.5 7.5 0 1 0 -15 0zM161.6 174.2 a7.5 7.5 0 1 0 15 0 a7.5 7.5 0 1 0 -15 0zM96.64 211.7 a7.5 7.5 0 1 0 15 0 a7.5 7.5 0 1 0 -15 0zM31.69 174.2 a7.5 7.5 0 1 0 15 0 a7.5 7.5 0 1 0 -15 0zM31.69 99.2 a7.5 7.5 0 1 0 15 0 a7.5 7.5 0 1 0 -15 0zM31.69 399.2 a7.5 7.5 0 1 0 15 0 a7.5 7.5 0 1 0 -15 0zM96.64 436.7 a7.5 7.5 0 1 0 15 0 a7.5 7.5 0 1 0 -15 0zM96.64 511.7 a7.5 7.5 0 1 0 15 0 a7.5 7.5 0 1 0 -15 0zM31.69 549.2 a7.5 7.5 0 1 0 15 0 a7.5 7.5 0 1 0 -15 0zM-33.26 511.7 a7.5 7.5 0 1 0 15 0 a7.5 7.5 0 1 0 -15 0zM-33.26 436.7 a7.5 7.5 0 1 0 15 0 a7.5 7.5 0 1 0 -15 0zM226.55 61.7 a7.5 7.5 0 1 0 15 0 a7.5 7.5 0 1 0 -15 0zM291.5 99.2 a7.5 7.5 0 1 0 15 0 a7.5 7.5 0 1 0 -15 0zM291.5 174.2 a7.5 7.5 0 1 0 15 0 a7.5 7.5 0 1 0 -15 0zM226.55 211.7 a7.5 7.5 0 1 0 15 0 a7.5 7.5 0 1 0 -15 0zM226.55 286.7 a7.5 7.5 0 1 0 15 0 a7.5 7.5 0 1 0 -15 0zM291.5 324.2 a7.5 7.5 0 1 0 15 0 a7.5 7.5 0 1 0 -15 0zM291.5 399.2 a7.5 7.5 0 1 0 15 0 a7.5 7.5 0 1 0 -15 0zM226.55 436.7 a7.5 7.5 0 1 0 15 0 a7.5 7.5 0 1 0 -15 0zM161.6 399.2 a7.5 7.5 0 1 0 15 0 a7.5 7.5 0 1 0 -15 0zM161.6 324.2 a7.5 7.5 0 1 0 15 0 a7.5 7.5 0 1 0 -15 0zM226.55 511.7 a7.5 7.5 0 1 0 15 0 a7.5 7.5 0 1 0 -15 0zM161.6 549.2 a7.5 7.5 0 1 0 15 0 a7.5 7.5 0 1 0 -15 0zM291.5 549.2 a7.5 7.5 0 1 0 15 0 a7.5 7.5 0 1 0 -15 0zM291.5 624.2 a7.5 7.5 0 1 0 15 0 a7.5 7.5 0 1 0 -15 0zM226.55 661.7 a7.5 7.5 0 1 0 15 0 a7.5 7.5 0 1 0 -15 0zM161.6 624.2 a7.5 7.5 0 1 0 15 0 a7.5 7.5 0 1 0 -15 0zM356.46 286.7 a7.5 7.5 0 1 0 15 0 a7.5 7.5 0 1 0 -15 0zM421.41 324.2 a7.5 7.5 0 1 0 15 0 a7.5 7.5 0 1 0 -15 0zM421.41 399.2 a7.5 7.5 0 1 0 15 0 a7.5 7.5 0 1 0 -15 0zM356.46 436.7 a7.5 7.5 0 1 0 15 0 a7.5 7.5 0 1 0 -15 0zM421.41 -50.8 a7.5 7.5 0 1 0 15 0 a7.5 7.5 0 1 0 -15 0zM486.37 -13.3 a7.5 7.5 0 1 0 15 0 a7.5 7.5 0 1 0 -15 0zM486.37 61.7 a7.5 7.5 0 1 0 15 0 a7.5 7.5 0 1 0 -15 0zM421.41 99.2 a7.5 7.5 0 1 0 15 0 a7.5 7.5 0 1 0 -15 0zM356.46 61.7 a7.5 7.5 0 1 0 15 0 a7.5 7.5 0 1 0 -15 0zM356.46 -13.3 a7.5 7.5 0 1 0 15 0 a7.5 7.5 0 1 0 -15 0zM421.41 174.2 a7.5 7.5 0 1 0 15 0 a7.5 7.5 0 1 0 -15 0zM486.37 211.7 a7.5 7.5 0 1 0 15 0 a7.5 7.5 0 1 0 -15 0zM486.37 286.7 a7.5 7.5 0 1 0 15 0 a7.5 7.5 0 1 0 -15 0zM356.46 211.7 a7.5 7.5 0 1 0 15 0 a7.5 7.5 0 1 0 -15 0zM551.32 324.2 a7.5 7.5 0 1 0 15 0 a7.5 7.5 0 1 0 -15 0zM551.32 399.2 a7.5 7.5 0 1 0 15 0 a7.5 7.5 0 1 0 -15 0zM486.37 436.7 a7.5 7.5 0 1 0 15 0 a7.5 7.5 0 1 0 -15 0zM551.32 -50.8 a7.5 7.5 0 1 0 15 0 a7.5 7.5 0 1 0 -15 0zM616.27 -13.3 a7.5 7.5 0 1 0 15 0 a7.5 7.5 0 1 0 -15 0zM616.27 61.7 a7.5 7.5 0 1 0 15 0 a7.5 7.5 0 1 0 -15 0zM551.32 99.2 a7.5 7.5 0 1 0 15 0 a7.5 7.5 0 1 0 -15 0zM681.23 99.2 a7.5 7.5 0 1 0 15 0 a7.5 7.5 0 1 0 -15 0zM681.23 174.2 a7.5 7.5 0 1 0 15 0 a7.5 7.5 0 1 0 -15 0zM616.27 211.7 a7.5 7.5 0 1 0 15 0 a7.5 7.5 0 1 0 -15 0zM551.32 174.2 a7.5 7.5 0 1 0 15 0 a7.5 7.5 0 1 0 -15 0zM681.23 -50.8 a7.5 7.5 0 1 0 15 0 a7.5 7.5 0 1 0 -15 0zM746.18 -13.3 a7.5 7.5 0 1 0 15 0 a7.5 7.5 0 1 0 -15 0zM746.18 61.7 a7.5 7.5 0 1 0 15 0 a7.5 7.5 0 1 0 -15 0zM746.18 211.7 a7.5 7.5 0 1 0 15 0 a7.5 7.5 0 1 0 -15 0zM746.18 286.7 a7.5 7.5 0 1 0 15 0 a7.5 7.5 0 1 0 -15 0zM681.23 324.2 a7.5 7.5 0 1 0 15 0 a7.5 7.5 0 1 0 -15 0zM616.27 286.7 a7.5 7.5 0 1 0 15 0 a7.5 7.5 0 1 0 -15 0zM681.23 399.2 a7.5 7.5 0 1 0 15 0 a7.5 7.5 0 1 0 -15 0zM746.18 436.7 a7.5 7.5 0 1 0 15 0 a7.5 7.5 0 1 0 -15 0zM746.18 511.7 a7.5 7.5 0 1 0 15 0 a7.5 7.5 0 1 0 -15 0zM681.23 549.2 a7.5 7.5 0 1 0 15 0 a7.5 7.5 0 1 0 -15 0zM616.27 511.7 a7.5 7.5 0 1 0 15 0 a7.5 7.5 0 1 0 -15 0zM616.27 436.7 a7.5 7.5 0 1 0 15 0 a7.5 7.5 0 1 0 -15 0zM876.09 511.7 a7.5 7.5 0 1 0 15 0 a7.5 7.5 0 1 0 -15 0zM941.04 549.2 a7.5 7.5 0 1 0 15 0 a7.5 7.5 0 1 0 -15 0zM941.04 624.2 a7.5 7.5 0 1 0 15 0 a7.5 7.5 0 1 0 -15 0zM876.09 661.7 a7.5 7.5 0 1 0 15 0 a7.5 7.5 0 1 0 -15 0zM811.13 624.2 a7.5 7.5 0 1 0 15 0 a7.5 7.5 0 1 0 -15 0zM811.13 549.2 a7.5 7.5 0 1 0 15 0 a7.5 7.5 0 1 0 -15 0zM941.04 -50.8 a7.5 7.5 0 1 0 15 0 a7.5 7.5 0 1 0 -15 0zM1006 -13.3 a7.5 7.5 0 1 0 15 0 a7.5 7.5 0 1 0 -15 0zM1006 61.7 a7.5 7.5 0 1 0 15 0 a7.5 7.5 0 1 0 -15 0zM941.04 99.2 a7.5 7.5 0 1 0 15 0 a7.5 7.5 0 1 0 -15 0zM876.09 61.7 a7.5 7.5 0 1 0 15 0 a7.5 7.5 0 1 0 -15 0zM876.09 -13.3 a7.5 7.5 0 1 0 15 0 a7.5 7.5 0 1 0 -15 0zM1070.95 -50.8 a7.5 7.5 0 1 0 15 0 a7.5 7.5 0 1 0 -15 0zM1135.9 -13.3 a7.5 7.5 0 1 0 15 0 a7.5 7.5 0 1 0 -15 0zM1135.9 61.7 a7.5 7.5 0 1 0 15 0 a7.5 7.5 0 1 0 -15 0zM1070.95 99.2 a7.5 7.5 0 1 0 15 0 a7.5 7.5 0 1 0 -15 0zM1200.86 99.2 a7.5 7.5 0 1 0 15 0 a7.5 7.5 0 1 0 -15 0zM1200.86 174.2 a7.5 7.5 0 1 0 15 0 a7.5 7.5 0 1 0 -15 0zM1135.9 211.7 a7.5 7.5 0 1 0 15 0 a7.5 7.5 0 1 0 -15 0zM1070.95 174.2 a7.5 7.5 0 1 0 15 0 a7.5 7.5 0 1 0 -15 0zM1070.95 399.2 a7.5 7.5 0 1 0 15 0 a7.5 7.5 0 1 0 -15 0zM1135.9 436.7 a7.5 7.5 0 1 0 15 0 a7.5 7.5 0 1 0 -15 0zM1135.9 511.7 a7.5 7.5 0 1 0 15 0 a7.5 7.5 0 1 0 -15 0zM1070.95 549.2 a7.5 7.5 0 1 0 15 0 a7.5 7.5 0 1 0 -15 0zM1006 511.7 a7.5 7.5 0 1 0 15 0 a7.5 7.5 0 1 0 -15 0zM1006 436.7 a7.5 7.5 0 1 0 15 0 a7.5 7.5 0 1 0 -15 0zM1200.86 549.2 a7.5 7.5 0 1 0 15 0 a7.5 7.5 0 1 0 -15 0zM1200.86 624.2 a7.5 7.5 0 1 0 15 0 a7.5 7.5 0 1 0 -15 0zM1135.9 661.7 a7.5 7.5 0 1 0 15 0 a7.5 7.5 0 1 0 -15 0zM1070.95 624.2 a7.5 7.5 0 1 0 15 0 a7.5 7.5 0 1 0 -15 0zM1265.81 61.7 a7.5 7.5 0 1 0 15 0 a7.5 7.5 0 1 0 -15 0zM1330.76 99.2 a7.5 7.5 0 1 0 15 0 a7.5 7.5 0 1 0 -15 0zM1330.76 174.2 a7.5 7.5 0 1 0 15 0 a7.5 7.5 0 1 0 -15 0zM1265.81 211.7 a7.5 7.5 0 1 0 15 0 a7.5 7.5 0 1 0 -15 0zM1265.81 286.7 a7.5 7.5 0 1 0 15 0 a7.5 7.5 0 1 0 -15 0zM1200.86 324.2 a7.5 7.5 0 1 0 15 0 a7.5 7.5 0 1 0 -15 0zM1135.9 286.7 a7.5 7.5 0 1 0 15 0 a7.5 7.5 0 1 0 -15 0zM1265.81 511.7 a7.5 7.5 0 1 0 15 0 a7.5 7.5 0 1 0 -15 0zM1330.76 549.2 a7.5 7.5 0 1 0 15 0 a7.5 7.5 0 1 0 -15 0zM1330.76 624.2 a7.5 7.5 0 1 0 15 0 a7.5 7.5 0 1 0 -15 0zM1265.81 661.7 a7.5 7.5 0 1 0 15 0 a7.5 7.5 0 1 0 -15 0zM1330.77 174.2 a7.5 7.5 0 1 0 15 0 a7.5 7.5 0 1 0 -15 0zM1395.72 211.7 a7.5 7.5 0 1 0 15 0 a7.5 7.5 0 1 0 -15 0zM1395.72 286.7 a7.5 7.5 0 1 0 15 0 a7.5 7.5 0 1 0 -15 0zM1330.77 324.2 a7.5 7.5 0 1 0 15 0 a7.5 7.5 0 1 0 -15 0zM1460.67 324.2 a7.5 7.5 0 1 0 15 0 a7.5 7.5 0 1 0 -15 0zM1460.67 399.2 a7.5 7.5 0 1 0 15 0 a7.5 7.5 0 1 0 -15 0zM1395.72 436.7 a7.5 7.5 0 1 0 15 0 a7.5 7.5 0 1 0 -15 0zM1330.77 399.2 a7.5 7.5 0 1 0 15 0 a7.5 7.5 0 1 0 -15 0zM1395.72 511.7 a7.5 7.5 0 1 0 15 0 a7.5 7.5 0 1 0 -15 0zM1330.77 549.2 a7.5 7.5 0 1 0 15 0 a7.5 7.5 0 1 0 -15 0zM1265.81 436.7 a7.5 7.5 0 1 0 15 0 a7.5 7.5 0 1 0 -15 0zM1460.67 549.2 a7.5 7.5 0 1 0 15 0 a7.5 7.5 0 1 0 -15 0zM1460.67 624.2 a7.5 7.5 0 1 0 15 0 a7.5 7.5 0 1 0 -15 0zM1395.72 661.7 a7.5 7.5 0 1 0 15 0 a7.5 7.5 0 1 0 -15 0zM1330.77 624.2 a7.5 7.5 0 1 0 15 0 a7.5 7.5 0 1 0 -15 0zM1460.67 -50.8 a7.5 7.5 0 1 0 15 0 a7.5 7.5 0 1 0 -15 0zM1525.63 -13.3 a7.5 7.5 0 1 0 15 0 a7.5 7.5 0 1 0 -15 0zM1525.63 61.7 a7.5 7.5 0 1 0 15 0 a7.5 7.5 0 1 0 -15 0zM1460.67 99.2 a7.5 7.5 0 1 0 15 0 a7.5 7.5 0 1 0 -15 0zM1395.72 61.7 a7.5 7.5 0 1 0 15 0 a7.5 7.5 0 1 0 -15 0zM1395.72 -13.3 a7.5 7.5 0 1 0 15 0 a7.5 7.5 0 1 0 -15 0zM1460.67 174.2 a7.5 7.5 0 1 0 15 0 a7.5 7.5 0 1 0 -15 0zM1525.63 211.7 a7.5 7.5 0 1 0 15 0 a7.5 7.5 0 1 0 -15 0zM1525.63 286.7 a7.5 7.5 0 1 0 15 0 a7.5 7.5 0 1 0 -15 0zM1590.58 324.2 a7.5 7.5 0 1 0 15 0 a7.5 7.5 0 1 0 -15 0zM1590.58 399.2 a7.5 7.5 0 1 0 15 0 a7.5 7.5 0 1 0 -15 0zM1525.63 436.7 a7.5 7.5 0 1 0 15 0 a7.5 7.5 0 1 0 -15 0z" fill="rgba(89, 103, 114, 1)"></path><path d="M149.9 46.68L193.2 71.68L193.2 121.68L149.9 146.68L106.59 121.68L106.59 71.68zM106.59 421.68L149.9 446.68L149.9 496.68L106.59 521.68L63.29 496.68L63.29 446.68zM236.5 46.68L279.81 71.68L279.81 121.68L236.5 146.68L193.2 121.68L193.2 71.68zM193.2 421.68L236.5 446.68L236.5 496.68L193.2 521.68L149.9 496.68L149.9 446.68zM366.41 121.68L409.71 146.68L409.71 196.68L366.41 221.68L323.11 196.68L323.11 146.68zM409.71 196.68L453.02 221.68L453.02 271.68L409.71 296.68L366.41 271.68L366.41 221.68zM366.41 421.68L409.71 446.68L409.71 496.68L366.41 521.68L323.11 496.68L323.11 446.68zM453.02 121.68L496.32 146.68L496.32 196.68L453.02 221.68L409.71 196.68L409.71 146.68zM539.62 271.68L582.92 296.68L582.92 346.68L539.62 371.68L496.32 346.68L496.32 296.68zM626.23 -28.32L669.53 -3.32L669.53 46.68L626.23 71.68L582.92 46.68L582.92 -3.32zM626.23 121.68L669.53 146.68L669.53 196.68L626.23 221.68L582.92 196.68L582.92 146.68zM626.23 271.68L669.53 296.68L669.53 346.68L626.23 371.68L582.92 346.68L582.92 296.68zM712.83 121.68L756.13 146.68L756.13 196.68L712.83 221.68L669.53 196.68L669.53 146.68zM1015.95 196.68L1059.25 221.68L1059.25 271.68L1015.95 296.68L972.65 271.68L972.65 221.68zM1102.55 496.68L1145.86 521.68L1145.86 571.68L1102.55 596.68L1059.25 571.68L1059.25 521.68zM1189.16 346.68L1232.46 371.68L1232.46 421.68L1189.16 446.68L1145.86 421.68L1145.86 371.68zM1189.16 496.68L1232.46 521.68L1232.46 571.68L1189.16 596.68L1145.86 571.68L1145.86 521.68zM1275.76 46.68L1319.07 71.68L1319.07 121.68L1275.76 146.68L1232.46 121.68L1232.46 71.68zM1362.37 46.68L1405.67 71.68L1405.67 121.68L1362.37 146.68L1319.07 121.68L1319.07 71.68zM1319.07 271.68L1362.37 296.68L1362.37 346.68L1319.07 371.68L1275.76 346.68L1275.76 296.68zM1319.07 421.68L1362.37 446.68L1362.37 496.68L1319.07 521.68L1275.76 496.68L1275.76 446.68zM1405.67 271.68L1448.97 296.68L1448.97 346.68L1405.67 371.68L1362.37 346.68L1362.37 296.68z" stroke="rgba(51, 58, 64, 1)" stroke-width="2"></path></g><defs><mask id="SvgjsMask1009"><rect width="1440" height="560" fill="#ffffff"></rect></mask></defs></svg>